<svg width="22" height="22" viewBox="0 0 22 22" fill="none" xmlns="http://www.w3.org/2000/svg">
<rect width="22" height="22" fill="#EA4335"/>
<g clip-path="url(#clip0_136_3747)">
<path fill-rule="evenodd" clip-rule="evenodd" d="M14.6318 6.91101C13.7025 6.02474 12.4624 5.54191 11.1793 5.56176C8.83129 5.56176 6.83718 7.1458 6.12616 9.2788V9.27885C5.74917 10.3966 5.74917 11.607 6.12616 12.7247H6.12946C6.84377 14.8544 8.83459 16.4385 11.1826 16.4385C12.3946 16.4385 13.4351 16.1285 14.2415 15.5809V15.5787C15.1907 14.9504 15.8388 13.9616 16.0406 12.8438H11.1793V9.37807H19.6683C19.7742 9.97994 19.8238 10.595 19.8238 11.2068C19.8238 13.9442 18.8455 16.2586 17.1433 17.8261L17.1451 17.8274C15.6536 19.2031 13.6066 20.0001 11.1793 20.0001C7.77635 20.0001 4.66446 18.0821 3.13663 15.0429V15.0429C1.86013 12.4998 1.86014 9.50372 3.13664 6.96064H3.13666L3.13663 6.96062C4.66446 3.91818 7.77635 2.00012 11.1793 2.00012C13.4148 1.97366 15.5743 2.81364 17.2013 4.34147L14.6318 6.91101Z" fill="white"/>
</g>
<defs>
<clipPath id="clip0_136_3747">
<rect width="18" height="18" fill="white" transform="translate(2 2)"/>
</clipPath>
</defs>
</svg>
